<svg xmlns="http://www.w3.org/2000/svg" xmlns:xlink="http://www.w3.org/1999/xlink" aria-hidden="true" role="img" class="iconify iconify--logos" width="32" height="32" preserveAspectRatio="xMidYMid meet" viewBox="0 0 256 257">
	<path d="M0 0 C85.8 0 171.6 0 260 0 C260 67.98 260 135.96 260 206 C174.2 206 88.4 206 0 206 C0 138.02 0 70.04 0 0 Z " fill="#010101" transform="translate(0,0)"/>
	<path d="M0 0 C0.72293763 -0.00155999 1.44587525 -0.00311998 2.19072008 -0.00472724 C4.63135808 -0.00873978 7.0719347 -0.00554663 9.51257324 -0.00241089 C11.25491879 -0.00376482 12.99726405 -0.0055447 14.73960876 -0.00772095 C19.4853402 -0.01229628 24.23105001 -0.01050531 28.97678185 -0.00734186 C33.93178747 -0.00481877 38.88679118 -0.00715565 43.84179688 -0.00872803 C52.16451349 -0.01054987 60.48722125 -0.00814302 68.80993652 -0.00338745 C78.44669635 0.0020552 88.08343503 0.00029255 97.72019434 -0.00521386 C105.97833771 -0.00974456 114.23647469 -0.01039575 122.49461889 -0.00777519 C127.43375845 -0.00621218 132.37288805 -0.0060193 137.31202698 -0.00931168 C141.95436155 -0.01218977 146.59666872 -0.01021584 151.23900032 -0.00441742 C152.94789141 -0.00308949 154.65678478 -0.00348449 156.36567497 -0.00568008 C158.68839507 -0.0083903 161.01102591 -0.00501207 163.33374023 0 C164.63677849 0.00037703 165.93981674 0.00075405 167.282341 0.0011425 C170.16687012 0.12698364 170.16687012 0.12698364 171.16687012 1.12698364 C171.51123517 2.99228838 171.79681519 4.86847655 172.05895996 6.74710083 C172.3146022 8.55860626 172.3146022 8.55860626 172.57540894 10.40670776 C172.75977674 11.74572573 172.94390246 13.08477705 173.12780762 14.42385864 C173.32074996 15.81030337 173.51392013 17.19671642 173.70730591 18.58309937 C174.11525605 21.51515233 174.52004003 24.44762167 174.92272949 27.38040161 C175.42635723 31.04620472 175.93806503 34.71082111 176.45222092 38.37516022 C179.09690276 57.25964589 181.3567969 76.14240846 183.16687012 95.12698364 C182.05142822 95.08565308 180.93598633 95.04432251 179.78674316 95.0017395 C169.69896738 94.68170142 161.05233252 95.37778637 152.54187012 101.43948364 C149.66641785 104.69328489 149.33470651 106.84715561 149.16687012 111.12698364 C157.71071053 113.97493045 167.90948068 112.27431492 176.16687012 109.12698364 C179.73703932 107.03181392 183.2793311 104.90206168 185.16687012 101.12698364 C185.28959623 98.29013919 185.35261573 95.4762637 185.37219238 92.63821411 C185.38209198 91.76010071 185.39199158 90.8819873 185.40219116 89.9772644 C185.43385286 87.06626102 185.45858203 84.1552413 185.48327637 81.24417114 C185.50384186 79.22920297 185.52483822 77.21423915 185.54624939 75.19927979 C185.60151183 69.88924683 185.65090269 64.57917467 185.69909668 59.26907349 C185.74928127 53.85318502 185.80498319 48.43735367 185.86022949 43.02151489 C185.96786209 32.39005323 186.06929571 21.75854204 186.16687012 11.12698364 C196.18577626 8.44200163 206.21270418 5.8283883 216.29187012 3.37698364 C218.20226074 2.90325317 218.20226074 2.90325317 220.15124512 2.41995239 C221.37585449 2.12217896 222.60046387 1.82440552 223.86218262 1.51760864 C224.95546875 1.24980591 226.04875488 0.98200317 227.1751709 0.70608521 C230.16687012 0.12698364 230.16687012 0.12698364 235.16687012 0.12698364 C235.16687012 45.00698364 235.16687012 89.88698364 235.16687012 136.12698364 C215.40812012 136.20948364 195.64937012 136.29198364 175.29187012 136.37698364 C169.06585938 136.41339966 162.83984863 136.44981567 156.4251709 136.48733521 C148.78967285 136.50540161 148.78967285 136.50540161 145.20883179 136.50875854 C142.72174208 136.5148784 140.23466383 136.52890005 137.74765015 136.54928589 C133.96807412 136.57870308 130.18921981 136.58260308 126.4095459 136.58108521 C124.76315974 136.60267385 124.76315974 136.60267385 123.08351326 136.62469864 C113.69342004 136.57445437 105.57303418 134.08804252 98.16687012 128.12698364 C94.80534365 124.31725365 94.64857629 120.58007735 94.82312012 115.68557739 C95.85659203 107.99325806 100.2336945 103.66148341 106.16687012 99.12698364 C108.77874184 97.40508544 111.46646319 95.83014353 114.16687012 94.25198364 C120.9414532 90.16206506 127.55208097 85.97135107 130.16687012 78.12698364 C130.82226934 70.77791692 131.00722797 64.93541307 126.16687012 59.12698364 C117.84944919 53.29374817 108.23208549 52.82784668 98.42663574 52.80813599 C96.69850143 52.79306755 96.69850143 52.79306755 94.93545532 52.7776947 C91.14801507 52.74693801 87.36064528 52.72984822 83.57312012 52.71292114 C80.93895871 52.69420348 78.30480326 52.67462963 75.6706543 52.65423584 C69.45899405 52.60758262 63.24731665 52.57077374 57.03557158 52.53756297 C49.95928602 52.49924604 42.88309097 52.4498612 35.8068819 52.39957881 C21.26028109 52.29645933 6.71361541 52.2071344 -7.83312988 52.12698364 C-7.85839727 44.88211813 -7.87596168 37.6372639 -7.88806152 30.3923645 C-7.89310345 27.92556331 -7.89993679 25.45876512 -7.90856934 22.99197388 C-7.92064113 19.45493835 -7.92635944 15.91794219 -7.93078613 12.38088989 C-7.93594742 11.27048843 -7.9411087 10.16008698 -7.94642639 9.01603699 C-7.94650192 7.99505417 -7.94657745 6.97407135 -7.94665527 5.92214966 C-7.94887589 5.01836075 -7.9510965 4.11457184 -7.9533844 3.18339539 C-7.68549045 -1.39772374 -3.75616934 0.00108682 0 0 Z " fill="#FDFDFD" transform="translate(16.8331298828125,9.873016357421875)"/>
	<path d="M0 0 C85.8 0 171.6 0 260 0 C260 67.98 260 135.96 260 206 C174.2 206 88.4 206 0 206 C0 138.02 0 70.04 0 0 Z M6 7 C6 71.35 6 135.7 6 202 C18.3968953 199.52062094 30.56401542 196.98648307 42.75 193.75 C44.15220505 193.3822832 45.55454891 193.01509529 46.95703125 192.6484375 C50.30629192 191.77164706 53.65368008 190.88795743 57 190 C57.00586624 188.87104813 57.01173248 187.74209625 57.01777649 186.57893372 C57.07498486 175.94057829 57.14773673 165.30242766 57.23571491 154.66428089 C57.28044589 149.19506617 57.31969612 143.72592642 57.34643555 138.2565918 C57.37244113 132.9785554 57.41282435 127.70080706 57.46318626 122.42294884 C57.47987351 120.40916209 57.4913762 118.39532549 57.49761391 116.38147926 C57.50723468 113.56105971 57.53526997 110.74138021 57.56762695 107.92114258 C57.56619186 107.08820175 57.56475677 106.25526093 57.5632782 105.39707947 C57.63842762 100.76660768 58.05427521 97.7893283 61 94 C68.33035955 87.49411852 77.2922256 84.4833236 87.015625 84.828125 C89.39667164 85.03435739 91.6853549 85.40267223 94 86 C92.97184903 91.3977926 90.67534975 93.63701391 86.32421875 96.61328125 C78.08768615 101.52751498 70.5022371 102.62456286 61 103 C61.62728406 116.89004726 63.24144382 130.63584052 64.875 144.4375 C65.13449633 146.65815855 65.39361268 148.87886153 65.65234375 151.09960938 C66.2957229 156.61119038 66.9475223 162.12173774 67.60192871 167.63201904 C68.01528833 171.12935073 68.42250551 174.6273643 68.82910156 178.12548828 C69.09689452 180.40789059 69.36479437 182.69028037 69.6328125 184.97265625 C69.7554245 186.03721542 69.8780365 187.1017746 70.00436401 188.19859314 C70.12038971 189.17985672 70.23641541 190.1611203 70.35595703 191.17211914 C70.45651398 192.0347084 70.55707092 192.89729767 70.66067505 193.786026 C70.96179624 196.16681538 70.96179624 196.16681538 72 199 C132.39 199 192.78 199 255 199 C255 135.64 255 72.28 255 7 C172.83 7 90.66 7 6 7 Z " fill="#FCFCFC" transform="translate(0,0)"/>
</svg>
